<svg xmlns="http://www.w3.org/2000/svg" xmlns:xlink="http://www.w3.org/1999/xlink" viewBox="0 0 512 512">
  <defs>
    <linearGradient id="ghost-fill" x1="0" y1="0" x2="0" y2="1">
      <stop offset="0" stop-color="#60A5FA"/>
      <stop offset="1" stop-color="#3B82F6"/>
    </linearGradient>
    <linearGradient id="bg-fill" x1="0" y1="0" x2="1" y2="1">
      <stop offset="0" stop-color="#101A2E"/>
      <stop offset="1" stop-color="#0B1220"/>
    </linearGradient>
  </defs>

  <!-- Dark rounded background (marketplace theme navy) -->
  <rect width="512" height="512" rx="104" fill="url(#bg-fill)"/>

  <!-- Palm-up hand (Noto Emoji, Apache 2.0) emerging diagonally from behind the phantom -->
  <g transform="translate(226,194) rotate(38 34 136) scale(1.7)">
<path style="fill:#FFCA28;" d="M107.1,77.9c6.9,0.9,11.2,2.1,13.8,4.2c3.5,2.8,3.3,6.7-1.1,7.3c-2,0.3-22.5-0.2-26.1,0
	c-13.8,0.7-17.3,2.9-23.2,3.5c-3.3,0.4-11.1,1-14.1,1.3S25,98.5,8.9,97.7c-1.7-0.1-1.8-1.2-2.1-2.3c-1-2.8-2.4-12-2-19.1
	c0.2-2.2,1.2-2.6,2-3.9C10,67.7,16.4,57.7,24,53.1c3-1.8,11.7-5.7,14.7-8c6.6-4.8,12.2-9.7,14.2-11.1c3.8-2.7,10.4,0.4,7.7,8.9
	C58.8,48.8,49.3,53.6,47.2,59c-1,2.7-1,5.8,1.8,8.1c14-1.4,23.5-5.1,26.8-6.7c4.1-2,7.2-5.8,13.2-6.3c3.7-0.3,5.4,2.2,4,4
	c-1.4,1.8-7,5.9-7,5.9s3.8-0.7,7.5-2.6c4-2.1,9.5-4,14-2.5c3.7,1.2,2.9,4.5,1,5.3c-3.3,1.3-11.5,5-12.3,5.3c6-0.4,14-3.8,20.7-1.6
	c3.3,1.1,4.7,4.8,1.8,6.4C115.7,75.9,107.1,77.9,107.1,77.9z"/>
<g>
	<g>
		<defs>
			<path id="SVGID_1_" d="M107.1,77.9c6.9,0.9,11.2,2.1,13.8,4.2c3.5,2.8,3.3,6.7-1.1,7.3c-2,0.3-22.5-0.2-26.1,0
				c-13.8,0.7-17.3,2.9-23.2,3.5c-3.3,0.4-11.1,1-14.1,1.3S25,98.5,8.9,97.7c-1.7-0.1-1.8-1.2-2.1-2.3c-1-2.8-2.4-12-2-19.1
				c0.2-2.2,1.2-2.6,2-3.9C10,67.7,16.4,57.7,24,53.1c3-1.8,11.7-5.7,14.7-8c6.6-4.8,12.2-9.7,14.2-11.1c3.8-2.7,10.4,0.4,7.7,8.9
				C58.8,48.8,49.3,53.6,47.2,59c-1,2.7-1,5.8,1.8,8.1c14-1.4,23.5-5.1,26.8-6.7c4.1-2,7.2-5.8,13.2-6.3c3.7-0.3,5.4,2.2,4,4
				c-1.4,1.8-7,5.9-7,5.9s3.8-0.7,7.5-2.6c4-2.1,9.5-4,14-2.5c3.7,1.2,2.9,4.5,1,5.3c-3.3,1.3-11.5,5-12.3,5.3
				c6-0.4,14-3.8,20.7-1.6c3.3,1.1,4.7,4.8,1.8,6.4C115.7,75.9,107.1,77.9,107.1,77.9z"/>
		</defs>
		<clipPath id="SVGID_00000062873267528242747550000011805087172816827823_">
			<use xlink:href="#SVGID_1_"  style="overflow:visible;"/>
		</clipPath>
		<g style="clip-path:url(#SVGID_00000062873267528242747550000011805087172816827823_);">
			<path style="fill:#FAA700;" d="M59,41.4c1.3-3.4-1.8-8.1-5.3-5C50,39.6,40.9,48.6,33.1,51.8s-13.2,6.6-19.5,15.4
				C7,76.6,7,78.7,4.2,79.8c0-5.5,0-9.9,0-9.9L19,50.2l19.5-10l17.1-11.5l8.4,4.4l-1.7,11.3L59,41.4z"/>
			<path style="fill:#FAA700;" d="M110.3,78.2c-0.8,2,14.9,4.8,8.5,9.9c-2.4,1.9,3.5,2.4,3.5,2.4l3.3-3.9l-1.2-6.3L110.3,78.2z"/>
			<path style="fill:#FAA700;" d="M107.1,77.9c0,0-20.7-0.8-22.5-0.9c-5.6-0.2-9.7-1.8-15.1-2.2c-5.5-0.3-11.9-0.5-17.9-4.5
				c-3.1-2-3.8-3.2-3.8-3.2l5.2-5.9c0,0,38.4-10,38.5-10.2c0.1-0.1,21,6.3,21,6.3l10.9,14.5L120,76L107.1,77.9z"/>
		</g>
	</g>
</g>
<g>
	<g>
		<defs>
			<path id="SVGID_00000062165354075431183270000012544734549699951285_" d="M107.1,77.9c6.9,0.9,11.2,2.1,13.8,4.2
				c3.5,2.8,3.3,6.7-1.1,7.3c-2,0.3-22.5-0.2-26.1,0c-13.8,0.7-17.3,2.9-23.2,3.5c-3.3,0.4-11.1,1-14.1,1.3S25,98.5,8.9,97.7
				c-1.7-0.1-1.8-1.2-2.1-2.3c-1-2.8-2.4-12-2-19.1c0.2-2.2,1.2-2.6,2-3.9C10,67.7,16.4,57.7,24,53.1c3-1.8,11.7-5.7,14.7-8
				c6.6-4.8,12.2-9.7,14.2-11.1c3.8-2.7,10.4,0.4,7.7,8.9C58.8,48.8,49.3,53.6,47.2,59c-1,2.7-1,5.8,1.8,8.1
				c14-1.4,23.5-5.1,26.8-6.7c4.1-2,7.2-5.8,13.2-6.3c3.7-0.3,5.4,2.2,4,4c-1.4,1.8-7,5.9-7,5.9s3.8-0.7,7.5-2.6c4-2.1,9.5-4,14-2.5
				c3.7,1.2,2.9,4.5,1,5.3c-3.3,1.3-11.5,5-12.3,5.3c6-0.4,14-3.8,20.7-1.6c3.3,1.1,4.7,4.8,1.8,6.4
				C115.7,75.9,107.1,77.9,107.1,77.9z"/>
		</defs>
		<clipPath id="SVGID_00000067208210188790338540000004930630265365499320_">
			<use xlink:href="#SVGID_00000062165354075431183270000012544734549699951285_"  style="overflow:visible;"/>
		</clipPath>
		<g style="clip-path:url(#SVGID_00000067208210188790338540000004930630265365499320_);">
			<path style="fill:#B55E19;" d="M58.8,33.4c0.8,1.8,1.6,5.5-1.1,9.8c-5,8.1-13.8,10.3-13.8,18.4c0,5.6,7,9.3,9.5,10.1
				c0.7,0.3,0.9-0.4,0.4-0.6c-0.5-0.3-3.6-2.4-4.7-3.9c-1.1-1.5-2.3-4.6-0.3-6.9s12.7-12.1,12.7-12.1l3.1-8.8l-4.3-7.2L58.8,33.4z"
				/>
			<path style="fill:#B55E19;" d="M92.7,60.6L86,64c0,0-13.6,4.7-14.1,4.8c-0.4,0.1-1.1,0.4-1.5,0.1s-0.8-0.8-1.1-1
				s-0.2-0.9,0.6-0.8c0.8,0.1,1.9,0.4,3.6-0.2s9.4-3.2,11.6-4.9s6.4-5.1,6.8-5.5s1-0.9,0.3-2.2c-0.5-0.9,0.5-1.1,0.8-0.8
				c0.3,0.2,2.3,2.7,2.3,2.7L92.7,60.6z"/>
			<path style="fill:#B55E19;" d="M106.5,66.3c-1.2,0.4-9.3,2.9-10.4,3.2c-1,0.2-16.7,4-17.3,4.1c-0.6,0.2-1.4,0.3-2-0.2
				c-0.3-0.3-0.9-0.9-1.2-1.1c-0.2-0.2-0.4-1,1.1-0.9s4-0.1,7.2-0.9c5.9-1.4,9.2-2.1,11.6-3.1c5.9-2.6,11.7-4.5,13.2-5.3
				c0.9-0.5,0.9-1.3,0.7-2.1c-0.3-1,0.7-1.1,1.1-0.8c0.3,0.4,1.6,4.1,1.6,4.1L106.5,66.3z"/>
			<path style="fill:#B55E19;" d="M120.5,76.6c-1.3,0.1-12.2,1.3-13.4,1.3c-1.2,0-7.3-0.3-7.3-0.3s10.4-3.2,14.8-4.1
				c3.1-0.7,5.4-1.5,5.5-3.6s1.4-1.3,1.6-0.9C122,69.5,120.5,76.6,120.5,76.6z"/>
			<path style="fill:#B55E19;" d="M123.6,85.4c-0.4,0.9-1.2,1.9-2.7,1.9s-29.8,0.2-34.2,0.3c-8,0.1-11.3,2.3-20.9,2.8
				c-10.3,0.5-21.2,4.3-60.3,4.4c0.8,2.4,1.5,5,1.7,4.9C7.4,99.5,36,99.2,36,99.2l49.9-6.7l37.4-0.6l2.8-4.6L123.6,85.4z"/>
		</g>
	</g>
</g>
  </g>

  <!-- Phantom (from the PhantomMarket web favicon), top-left, drawn over the wrist -->
  <g transform="translate(26, 18) scale(0.70)">
    <path fill="url(#ghost-fill)" d="M 180.352 391.86 C 165.669 378.075 154.684 380.641 154.684 380.641 C 145.267 381.203 137.341 384.223 132.435 388.375 L 123.775 394.977 C 107.751 408.371 91.533 406.485 91.533 406.485 C 64.486 407.399 49.993 387.336 50.232 371.395 C 50.232 371.489 50.282 192.446 50.282 192.446 L 50.416 192.446 C 50.365 190.965 50.282 189.493 50.282 188.004 C 50.282 105.012 129.685 37.735 227.497 37.735 C 325.306 37.735 404.708 105.012 404.708 188.004 C 404.708 189.493 404.626 190.965 404.575 192.446 L 404.708 192.446 C 404.708 192.446 404.763 371.489 404.759 371.395 C 405.001 387.336 389.509 407.399 362.458 406.485 C 362.458 406.485 346.243 408.371 330.216 394.977 L 321.556 388.375 C 316.65 384.223 308.728 381.203 299.31 380.641 C 299.31 380.641 288.326 378.075 273.642 391.86 C 262.892 401.778 245.763 408.184 227.497 408.184 C 209.232 408.184 192.099 401.778 180.352 391.86"/>
    <path fill="#0E1626" d="M 271.876 168.942 C 265.622 168.942 260.552 174.012 260.552 180.266 L 260.552 227.426 C 260.552 233.68 265.622 238.75 271.876 238.75 L 319.036 238.75 C 325.29 238.75 330.36 233.68 330.36 227.426 L 330.36 180.266 C 330.36 174.012 325.29 168.942 319.036 168.942 Z"/>
    <path fill="#0E1626" d="M 133.958 168.942 C 127.704 168.942 122.634 174.012 122.634 180.266 L 122.634 227.426 C 122.634 233.68 127.704 238.75 133.958 238.75 L 181.115 238.75 C 187.372 238.75 192.443 233.68 192.443 227.426 L 192.443 180.266 C 192.443 174.012 187.372 168.942 181.115 168.942 Z"/>
  </g>

  <!-- Empty file with folded corner resting on the palm -->
  <g transform="translate(14,-58) rotate(16 400 360)">
    <g stroke-linejoin="round">
      <path fill="#F1F5F9" d="M 350 250 H 420 L 468 298 V 408 Q 468 422 454 422 H 350 Q 336 422 336 408 V 264 Q 336 250 350 250 Z"/>
      <path fill="#94A3B8" d="M 420 250 L 468 298 H 434 Q 420 298 420 284 Z"/>
    </g>
    <text x="402" y="398" text-anchor="middle" font-family="DejaVu Sans, Arial, sans-serif"
          font-weight="bold" font-size="24" fill="#475569"
          textLength="116" lengthAdjust="spacingAndGlyphs">.litematic</text>
  </g>
</svg>
